# xmcd CD database file
#
# Track frame offsets:
#	150
#	8245
#	19365
#	29472
#	40335
#	50860
#	60787
#	70147
#	81817
#	95890
#	106942
#	118400
#	127010
#	144152
#	155920
#	167410
#	179125
#	192237
#	202737
#	224255
#	240372
#	251627
#	265507
#	273975
#	284102
#	300465
#	318594
#
# Disc length: 4380 seconds
#
# Revision: 0
# Processed by: cddbd v1.5.1PL2 Copyright (c) Steve Scherf et al.
# Submitted via: CDex 1.51
#
DISCID=90111a1b
DTITLE=Rangers - To nejlepsi potreti - cd2
DYEAR=2006
DGENRE=Country
TTITLE0=Dostavnik
TTITLE1=Zlomena ruze
TTITLE2=Railroad Bill
TTITLE3=Kdyt nas dedek pali whisky
TTITLE4=Cernovlasa Lu
TTITLE5=Ukolebavka pro Mary Ann
TTITLE6=Zuzana
TTITLE7=Mississippi
TTITLE8=Nakladak
TTITLE9=Naveky chran ten kraj
TTITLE10=Kapitan Stormy
TTITLE11=Casey Jones
TTITLE12=Stalo se ve meste Langtry
TTITLE13=Frajer Joe
TTITLE14=Vecny je ricni proud
TTITLE15=Dej boze muj
TTITLE16=El Camilo Real
TTITLE17=Uz je cas vratit se domu
TTITLE18=Australie
TTITLE19=Vzdycky se ukaze rano
TTITLE20=Rio
TTITLE21=Nahodou
TTITLE22=Uz jsem si na to zvyk
TTITLE23=Kapitan
TTITLE24=To vsechno jsem ja
TTITLE25=Na konci milenia
TTITLE26=Svet je hezky misto k bydleni
EXTD=YEAR: 2006
EXTT0=
EXTT1=
EXTT2=
EXTT3=
EXTT4=
EXTT5=
EXTT6=
EXTT7=
EXTT8=
EXTT9=
EXTT10=
EXTT11=
EXTT12=
EXTT13=
EXTT14=
EXTT15=
EXTT16=
EXTT17=
EXTT18=
EXTT19=
EXTT20=
EXTT21=
EXTT22=
EXTT23=
EXTT24=
EXTT25=
EXTT26=
PLAYORDER=
